<svg xmlns="http://www.w3.org/2000/svg" viewBox="14.98 54.66 133.12 42.18"><path fill="#ffffff" d="M241.14,198.63c1,0,2.05,0,3.08,0,.78,0,1.58,0,2.54,0,2.35,0,5.73,1,5.73,4.54a4.83,4.83,0,0,1-4.91,4.57l-1.17,0V207a6.41,6.41,0,0,0,.87,0c2,0,2.84-1.94,2.84-3.59,0-3.17-2.22-4.06-3.73-4.06a6,6,0,0,0-1,.07v12.9c0,1.61.86,1.63,2.1,1.65v.59c-1.12,0-2.1,0-3.11,0s-2.17,0-3.31,0V214c1.21,0,2.08,0,2.08-1.65V201.46c0-1.76-.3-2.24-2-2.24Z" transform="translate(-226.09 -118.09)"></path><path fill="#ffffff" d="M264.81,210a21.47,21.47,0,0,0,1.3,3.33,2.15,2.15,0,0,0,1.76.62v.59c-.87,0-1.76,0-2.63,0-1.12,0-2.22,0-3.34,0V214h.41c.58,0,1.26-.11,1.26-.75a5.52,5.52,0,0,0-.34-1.33l-1.14-3.31h-5.38l-.49,1.6a10.92,10.92,0,0,0-.62,2.72c0,1.07.75,1,1.55,1.07h.53v.59c-.9,0-1.81,0-2.7,0s-1.85,0-2.76,0V214c1.39-.16,1.64-.34,2.21-1.62.37-.82.64-1.72.94-2.56l2.92-8.16a6.7,6.7,0,0,0,.48-2,2.83,2.83,0,0,0,0-.6,2.78,2.78,0,0,0,1.32-1h.39ZM257,207.65h4.7l-2.44-6.71h-.05Z" transform="translate(-226.09 -118.09)"></path><path fill="#ffffff" d="M294.32,198c-.09.43-.66.64-1.48.64H269c-.57,0-1.19,0-1.44-.64h-.45l-.26,3.63h.6c.39-1.48.48-2.05,2.53-2.05h3v12.76c0,1.61-.87,1.63-2.08,1.65v.59c1.14,0,2.21,0,3.31,0s2,0,3.09,0V214c-1.22,0-2.08,0-2.08-1.65V199.57h3.47c1.26,0,1.61.52,1.73,1.17l.06.88h.65l.05-.88c.11-.67.29-1.17,1.83-1.17h3.47v12.76c0,1.61-.87,1.63-2.08,1.65v.59c1.14,0,2.22,0,3.31,0s2,0,3.09,0V214c-1.21,0-2.08,0-2.08-1.65V199.57h3.47c1.83,0,1.76.82,1.83,2.05h.61l.21-3.63Z" transform="translate(-226.09 -118.09)"></path><path fill="#ffffff" d="M299.73,205.85h3c1.85,0,1.85-1.44,1.92-2h.45c0,.5-.09,1.74-.09,2.56s.12,1.81.09,2.54h-.45c0-2.2-.73-2.2-2.49-2.2h-2.45v3.89c0,2.53.1,3.17,2.35,3.17h1.42c2.24-.11,3.25-.41,4.14-2.85l.55.09a29.94,29.94,0,0,0-.94,3.49c-2.28,0-4.57,0-6.85,0-1.69,0-3.38,0-5.07,0V214c2,0,2.16-.37,2.16-2.58V201.25c0-1.87-.36-2-2.16-2v-.59c1.53,0,3.08,0,4.61,0,2.19,0,4.36,0,6.58,0V202l-.46.12c-.34-2.15-1.37-2.79-3.65-2.79h-2.68Z" transform="translate(-226.09 -118.09)"></path><path fill="#ffffff" d="M313.12,207v5.29c0,1.61.87,1.63,2.08,1.65v.59c-1.1,0-2.08,0-3.08,0s-2.17,0-3.32,0V214c1.15.07,2.08-.23,2.08-1.53V200.87c0-1.6-.87-1.62-2.08-1.65v-.59c1.26,0,2.36,0,3.48,0,.8,0,1.6,0,3.06,0,4.31,0,5.27,2.42,5.27,4a4.21,4.21,0,0,1-3.24,3.91c2.08,3,3.18,4.86,4.16,6a3.32,3.32,0,0,0,2.58,1.44v.59c-.57,0-1.14,0-1.71,0s-1.31,0-1.95,0A53.67,53.67,0,0,1,315.2,207Zm1.37-7.68a8.39,8.39,0,0,0-1.37.13v6.7a6.62,6.62,0,0,0,1.21.12c2.81,0,3.91-1.86,3.91-3.5C318.24,200.82,317.19,199.36,314.49,199.36Z" transform="translate(-226.09 -118.09)"></path><path fill="#ffffff" d="M325,210.81h.53c.39,1.71,1.67,3.38,3.56,3.38a3,3,0,0,0,3.13-3c0-4.25-6.76-3-6.76-8.39,0-2.94,2.1-4.47,4.89-4.47a18.65,18.65,0,0,1,2.79.34l.36,2.92h-.52A2.77,2.77,0,0,0,330,199a2.67,2.67,0,0,0-2.74,2.92c0,4.25,7,3.08,7,8.34,0,3-2.68,4.64-5.37,4.64a8.47,8.47,0,0,1-3.5-.78Z" transform="translate(-226.09 -118.09)"></path><path fill="#ffffff" d="M344.31,198.29a8.32,8.32,0,1,1-8.23,8.4A8.28,8.28,0,0,1,344.31,198.29Zm.2,15.9c3.34,0,5.44-2.88,5.44-7,0-3.47-2-8.15-5.92-8.15-3.34,0-5.44,2.88-5.44,7C338.59,209.5,340.6,214.19,344.51,214.19Z" transform="translate(-226.09 -118.09)"></path><path fill="#ffffff" d="M369,214.78h-.52l-11.95-13.11v8.52c0,3.15.25,3.79,2.72,3.79v.59c-1,0-2,0-3,0s-2,0-3,0V214c1.4,0,2.45,0,2.45-2.9V201.9c0-2-.85-2.68-2.81-2.68v-.59c.7,0,1.39,0,2.1,0s1.26,0,1.87,0c.94,1.39,3.06,3.47,5.67,6.35,1.94,2.15,4.09,4.41,5.64,6.1V202c0-2.11-.48-2.74-2.77-2.77v-.59c1.06,0,2.13,0,3.18,0,.89,0,1.76,0,2.65,0v.59c-1.39,0-2.15.12-2.15,2.36Z" transform="translate(-226.09 -118.09)"></path><path fill="#ffffff" d="M296.79,172.92a45.81,45.81,0,0,0-12.29,3.47,41.15,41.15,0,0,0-10.91,7.91,37.83,37.83,0,0,1,4.2.13,36.5,36.5,0,0,1,12,3c2.69-2.52,7.07-6.83,12.71-8.47,9.76-2.86,16.18,1.84,16.18,1.84S313.68,171.4,296.79,172.92Z" transform="translate(-226.09 -118.09)"></path><path fill="#ffffff" d="M319.07,191.94a45.45,45.45,0,0,0,12.29-3.47,41.15,41.15,0,0,0,10.91-7.91,37.58,37.58,0,0,1-4.19-.13,36.3,36.3,0,0,1-12-3c-2.69,2.53-7.07,6.84-12.7,8.48-9.77,2.86-16.2-1.84-16.2-1.84S302.18,193.46,319.07,191.94Z" transform="translate(-226.09 -118.09)"></path><path fill="#ffffff" d="M372.47,200.5a1.78,1.78,0,1,1-1.84,1.78,1.78,1.78,0,0,1,1.84-1.78Zm0,.35a1.43,1.43,0,0,0,0,2.85,1.37,1.37,0,0,0,1.36-1.41,1.39,1.39,0,0,0-1.37-1.44Zm-.27,2.35h-.41v-1.78a4.86,4.86,0,0,1,.68-.06,1,1,0,0,1,.61.14.45.45,0,0,1,.18.38.47.47,0,0,1-.37.43v0c.18,0,.26.19.32.43a1.69,1.69,0,0,0,.13.44h-.44a1.87,1.87,0,0,1-.14-.44c0-.18-.14-.27-.37-.27h-.19Zm0-1h.2c.22,0,.41-.08.41-.26s-.12-.27-.38-.27l-.23,0Z" transform="translate(-226.09 -118.09)"></path></svg>